<svg width="590" height="461" viewBox="0 0 590 461" fill="none" xmlns="http://www.w3.org/2000/svg">
<rect width="276" height="226" rx="32" fill="#FBB8AE"/>
<path fill-rule="evenodd" clip-rule="evenodd" d="M469.694 342.389C470.63 342.389 471.389 341.63 471.389 340.694C471.389 339.759 470.63 339 469.694 339C468.759 339 468 339.759 468 340.694C468 341.63 468.759 342.389 469.694 342.389ZM486.639 342.389C487.575 342.389 488.333 341.63 488.333 340.694C488.333 339.759 487.575 339 486.639 339C485.703 339 484.944 339.759 484.944 340.694C484.944 341.63 485.703 342.389 486.639 342.389ZM505.278 340.694C505.278 341.63 504.519 342.389 503.583 342.389C502.648 342.389 501.889 341.63 501.889 340.694C501.889 339.759 502.648 339 503.583 339C504.519 339 505.278 339.759 505.278 340.694ZM520.528 342.389C521.464 342.389 522.222 341.63 522.222 340.694C522.222 339.759 521.464 339 520.528 339C519.592 339 518.833 339.759 518.833 340.694C518.833 341.63 519.592 342.389 520.528 342.389ZM539.167 340.694C539.167 341.63 538.408 342.389 537.472 342.389C536.536 342.389 535.778 341.63 535.778 340.694C535.778 339.759 536.536 339 537.472 339C538.408 339 539.167 339.759 539.167 340.694ZM554.417 342.389C555.352 342.389 556.111 341.63 556.111 340.694C556.111 339.759 555.352 339 554.417 339C553.481 339 552.722 339.759 552.722 340.694C552.722 341.63 553.481 342.389 554.417 342.389ZM573.056 340.694C573.056 341.63 572.297 342.389 571.361 342.389C570.425 342.389 569.667 341.63 569.667 340.694C569.667 339.759 570.425 339 571.361 339C572.297 339 573.056 339.759 573.056 340.694ZM588.306 342.389C589.241 342.389 590 341.63 590 340.694C590 339.759 589.241 339 588.306 339C587.37 339 586.611 339.759 586.611 340.694C586.611 341.63 587.37 342.389 588.306 342.389ZM471.389 357.639C471.389 358.575 470.63 359.333 469.694 359.333C468.759 359.333 468 358.575 468 357.639C468 356.703 468.759 355.944 469.694 355.944C470.63 355.944 471.389 356.703 471.389 357.639ZM486.639 359.333C487.575 359.333 488.333 358.575 488.333 357.639C488.333 356.703 487.575 355.944 486.639 355.944C485.703 355.944 484.944 356.703 484.944 357.639C484.944 358.575 485.703 359.333 486.639 359.333ZM505.278 357.639C505.278 358.575 504.519 359.333 503.583 359.333C502.648 359.333 501.889 358.575 501.889 357.639C501.889 356.703 502.648 355.944 503.583 355.944C504.519 355.944 505.278 356.703 505.278 357.639ZM520.528 359.333C521.464 359.333 522.222 358.575 522.222 357.639C522.222 356.703 521.464 355.944 520.528 355.944C519.592 355.944 518.833 356.703 518.833 357.639C518.833 358.575 519.592 359.333 520.528 359.333ZM539.167 357.639C539.167 358.575 538.408 359.333 537.472 359.333C536.536 359.333 535.778 358.575 535.778 357.639C535.778 356.703 536.536 355.944 537.472 355.944C538.408 355.944 539.167 356.703 539.167 357.639ZM554.417 359.333C555.352 359.333 556.111 358.575 556.111 357.639C556.111 356.703 555.352 355.944 554.417 355.944C553.481 355.944 552.722 356.703 552.722 357.639C552.722 358.575 553.481 359.333 554.417 359.333ZM573.056 357.639C573.056 358.575 572.297 359.333 571.361 359.333C570.425 359.333 569.667 358.575 569.667 357.639C569.667 356.703 570.425 355.944 571.361 355.944C572.297 355.944 573.056 356.703 573.056 357.639ZM588.306 359.333C589.241 359.333 590 358.575 590 357.639C590 356.703 589.241 355.944 588.306 355.944C587.37 355.944 586.611 356.703 586.611 357.639C586.611 358.575 587.37 359.333 588.306 359.333ZM471.389 374.583C471.389 375.519 470.63 376.278 469.694 376.278C468.759 376.278 468 375.519 468 374.583C468 373.648 468.759 372.889 469.694 372.889C470.63 372.889 471.389 373.648 471.389 374.583ZM486.639 376.278C487.575 376.278 488.333 375.519 488.333 374.583C488.333 373.648 487.575 372.889 486.639 372.889C485.703 372.889 484.944 373.648 484.944 374.583C484.944 375.519 485.703 376.278 486.639 376.278ZM505.278 374.583C505.278 375.519 504.519 376.278 503.583 376.278C502.648 376.278 501.889 375.519 501.889 374.583C501.889 373.648 502.648 372.889 503.583 372.889C504.519 372.889 505.278 373.648 505.278 374.583ZM520.528 376.278C521.464 376.278 522.222 375.519 522.222 374.583C522.222 373.648 521.464 372.889 520.528 372.889C519.592 372.889 518.833 373.648 518.833 374.583C518.833 375.519 519.592 376.278 520.528 376.278ZM539.167 374.583C539.167 375.519 538.408 376.278 537.472 376.278C536.536 376.278 535.778 375.519 535.778 374.583C535.778 373.648 536.536 372.889 537.472 372.889C538.408 372.889 539.167 373.648 539.167 374.583ZM554.417 376.278C555.352 376.278 556.111 375.519 556.111 374.583C556.111 373.648 555.352 372.889 554.417 372.889C553.481 372.889 552.722 373.648 552.722 374.583C552.722 375.519 553.481 376.278 554.417 376.278ZM573.056 374.583C573.056 375.519 572.297 376.278 571.361 376.278C570.425 376.278 569.667 375.519 569.667 374.583C569.667 373.648 570.425 372.889 571.361 372.889C572.297 372.889 573.056 373.648 573.056 374.583ZM588.306 376.278C589.241 376.278 590 375.519 590 374.583C590 373.648 589.241 372.889 588.306 372.889C587.37 372.889 586.611 373.648 586.611 374.583C586.611 375.519 587.37 376.278 588.306 376.278ZM471.389 391.528C471.389 392.464 470.63 393.222 469.694 393.222C468.759 393.222 468 392.464 468 391.528C468 390.592 468.759 389.833 469.694 389.833C470.63 389.833 471.389 390.592 471.389 391.528ZM486.639 393.222C487.575 393.222 488.333 392.464 488.333 391.528C488.333 390.592 487.575 389.833 486.639 389.833C485.703 389.833 484.944 390.592 484.944 391.528C484.944 392.464 485.703 393.222 486.639 393.222ZM505.278 391.528C505.278 392.464 504.519 393.222 503.583 393.222C502.648 393.222 501.889 392.464 501.889 391.528C501.889 390.592 502.648 389.833 503.583 389.833C504.519 389.833 505.278 390.592 505.278 391.528ZM520.528 393.222C521.464 393.222 522.222 392.464 522.222 391.528C522.222 390.592 521.464 389.833 520.528 389.833C519.592 389.833 518.833 390.592 518.833 391.528C518.833 392.464 519.592 393.222 520.528 393.222ZM539.167 391.528C539.167 392.464 538.408 393.222 537.472 393.222C536.536 393.222 535.778 392.464 535.778 391.528C535.778 390.592 536.536 389.833 537.472 389.833C538.408 389.833 539.167 390.592 539.167 391.528ZM554.417 393.222C555.352 393.222 556.111 392.464 556.111 391.528C556.111 390.592 555.352 389.833 554.417 389.833C553.481 389.833 552.722 390.592 552.722 391.528C552.722 392.464 553.481 393.222 554.417 393.222ZM573.056 391.528C573.056 392.464 572.297 393.222 571.361 393.222C570.425 393.222 569.667 392.464 569.667 391.528C569.667 390.592 570.425 389.833 571.361 389.833C572.297 389.833 573.056 390.592 573.056 391.528ZM588.306 393.222C589.241 393.222 590 392.464 590 391.528C590 390.592 589.241 389.833 588.306 389.833C587.37 389.833 586.611 390.592 586.611 391.528C586.611 392.464 587.37 393.222 588.306 393.222ZM471.389 408.472C471.389 409.408 470.63 410.167 469.694 410.167C468.759 410.167 468 409.408 468 408.472C468 407.536 468.759 406.778 469.694 406.778C470.63 406.778 471.389 407.536 471.389 408.472ZM486.639 410.167C487.575 410.167 488.333 409.408 488.333 408.472C488.333 407.536 487.575 406.778 486.639 406.778C485.703 406.778 484.944 407.536 484.944 408.472C484.944 409.408 485.703 410.167 486.639 410.167ZM505.278 408.472C505.278 409.408 504.519 410.167 503.583 410.167C502.648 410.167 501.889 409.408 501.889 408.472C501.889 407.536 502.648 406.778 503.583 406.778C504.519 406.778 505.278 407.536 505.278 408.472ZM520.528 410.167C521.464 410.167 522.222 409.408 522.222 408.472C522.222 407.536 521.464 406.778 520.528 406.778C519.592 406.778 518.833 407.536 518.833 408.472C518.833 409.408 519.592 410.167 520.528 410.167ZM539.167 408.472C539.167 409.408 538.408 410.167 537.472 410.167C536.536 410.167 535.778 409.408 535.778 408.472C535.778 407.536 536.536 406.778 537.472 406.778C538.408 406.778 539.167 407.536 539.167 408.472ZM554.417 410.167C555.352 410.167 556.111 409.408 556.111 408.472C556.111 407.536 555.352 406.778 554.417 406.778C553.481 406.778 552.722 407.536 552.722 408.472C552.722 409.408 553.481 410.167 554.417 410.167ZM573.056 408.472C573.056 409.408 572.297 410.167 571.361 410.167C570.425 410.167 569.667 409.408 569.667 408.472C569.667 407.536 570.425 406.778 571.361 406.778C572.297 406.778 573.056 407.536 573.056 408.472ZM588.306 410.167C589.241 410.167 590 409.408 590 408.472C590 407.536 589.241 406.778 588.306 406.778C587.37 406.778 586.611 407.536 586.611 408.472C586.611 409.408 587.37 410.167 588.306 410.167ZM471.389 425.417C471.389 426.352 470.63 427.111 469.694 427.111C468.759 427.111 468 426.352 468 425.417C468 424.481 468.759 423.722 469.694 423.722C470.63 423.722 471.389 424.481 471.389 425.417ZM486.639 427.111C487.575 427.111 488.333 426.352 488.333 425.417C488.333 424.481 487.575 423.722 486.639 423.722C485.703 423.722 484.944 424.481 484.944 425.417C484.944 426.352 485.703 427.111 486.639 427.111ZM505.278 425.417C505.278 426.352 504.519 427.111 503.583 427.111C502.648 427.111 501.889 426.352 501.889 425.417C501.889 424.481 502.648 423.722 503.583 423.722C504.519 423.722 505.278 424.481 505.278 425.417ZM520.528 427.111C521.464 427.111 522.222 426.352 522.222 425.417C522.222 424.481 521.464 423.722 520.528 423.722C519.592 423.722 518.833 424.481 518.833 425.417C518.833 426.352 519.592 427.111 520.528 427.111ZM539.167 425.417C539.167 426.352 538.408 427.111 537.472 427.111C536.536 427.111 535.778 426.352 535.778 425.417C535.778 424.481 536.536 423.722 537.472 423.722C538.408 423.722 539.167 424.481 539.167 425.417ZM554.417 427.111C555.352 427.111 556.111 426.352 556.111 425.417C556.111 424.481 555.352 423.722 554.417 423.722C553.481 423.722 552.722 424.481 552.722 425.417C552.722 426.352 553.481 427.111 554.417 427.111ZM573.056 425.417C573.056 426.352 572.297 427.111 571.361 427.111C570.425 427.111 569.667 426.352 569.667 425.417C569.667 424.481 570.425 423.722 571.361 423.722C572.297 423.722 573.056 424.481 573.056 425.417ZM588.306 427.111C589.241 427.111 590 426.352 590 425.417C590 424.481 589.241 423.722 588.306 423.722C587.37 423.722 586.611 424.481 586.611 425.417C586.611 426.352 587.37 427.111 588.306 427.111ZM471.389 442.361C471.389 443.297 470.63 444.056 469.694 444.056C468.759 444.056 468 443.297 468 442.361C468 441.425 468.759 440.667 469.694 440.667C470.63 440.667 471.389 441.425 471.389 442.361ZM486.639 444.056C487.575 444.056 488.333 443.297 488.333 442.361C488.333 441.425 487.575 440.667 486.639 440.667C485.703 440.667 484.944 441.425 484.944 442.361C484.944 443.297 485.703 444.056 486.639 444.056ZM505.278 442.361C505.278 443.297 504.519 444.056 503.583 444.056C502.648 444.056 501.889 443.297 501.889 442.361C501.889 441.425 502.648 440.667 503.583 440.667C504.519 440.667 505.278 441.425 505.278 442.361ZM520.528 444.056C521.464 444.056 522.222 443.297 522.222 442.361C522.222 441.425 521.464 440.667 520.528 440.667C519.592 440.667 518.833 441.425 518.833 442.361C518.833 443.297 519.592 444.056 520.528 444.056ZM539.167 442.361C539.167 443.297 538.408 444.056 537.472 444.056C536.536 444.056 535.778 443.297 535.778 442.361C535.778 441.425 536.536 440.667 537.472 440.667C538.408 440.667 539.167 441.425 539.167 442.361ZM554.417 444.056C555.352 444.056 556.111 443.297 556.111 442.361C556.111 441.425 555.352 440.667 554.417 440.667C553.481 440.667 552.722 441.425 552.722 442.361C552.722 443.297 553.481 444.056 554.417 444.056ZM573.056 442.361C573.056 443.297 572.297 444.056 571.361 444.056C570.425 444.056 569.667 443.297 569.667 442.361C569.667 441.425 570.425 440.667 571.361 440.667C572.297 440.667 573.056 441.425 573.056 442.361ZM588.306 444.056C589.241 444.056 590 443.297 590 442.361C590 441.425 589.241 440.667 588.306 440.667C587.37 440.667 586.611 441.425 586.611 442.361C586.611 443.297 587.37 444.056 588.306 444.056ZM471.389 459.306C471.389 460.241 470.63 461 469.694 461C468.759 461 468 460.241 468 459.306C468 458.37 468.759 457.611 469.694 457.611C470.63 457.611 471.389 458.37 471.389 459.306ZM486.639 461C487.575 461 488.333 460.241 488.333 459.306C488.333 458.37 487.575 457.611 486.639 457.611C485.703 457.611 484.944 458.37 484.944 459.306C484.944 460.241 485.703 461 486.639 461ZM505.278 459.306C505.278 460.241 504.519 461 503.583 461C502.648 461 501.889 460.241 501.889 459.306C501.889 458.37 502.648 457.611 503.583 457.611C504.519 457.611 505.278 458.37 505.278 459.306ZM520.528 461C521.464 461 522.222 460.241 522.222 459.306C522.222 458.37 521.464 457.611 520.528 457.611C519.592 457.611 518.833 458.37 518.833 459.306C518.833 460.241 519.592 461 520.528 461ZM539.167 459.306C539.167 460.241 538.408 461 537.472 461C536.536 461 535.778 460.241 535.778 459.306C535.778 458.37 536.536 457.611 537.472 457.611C538.408 457.611 539.167 458.37 539.167 459.306ZM554.417 461C555.352 461 556.111 460.241 556.111 459.306C556.111 458.37 555.352 457.611 554.417 457.611C553.481 457.611 552.722 458.37 552.722 459.306C552.722 460.241 553.481 461 554.417 461ZM573.056 459.306C573.056 460.241 572.297 461 571.361 461C570.425 461 569.667 460.241 569.667 459.306C569.667 458.37 570.425 457.611 571.361 457.611C572.297 457.611 573.056 458.37 573.056 459.306ZM588.306 461C589.241 461 590 460.241 590 459.306C590 458.37 589.241 457.611 588.306 457.611C587.37 457.611 586.611 458.37 586.611 459.306C586.611 460.241 587.37 461 588.306 461Z" fill="white"/>
<mask id="mask0_1_2414" style="mask-type:luminance" maskUnits="userSpaceOnUse" x="468" y="339" width="122" height="122">
<path fill-rule="evenodd" clip-rule="evenodd" d="M469.694 342.389C470.63 342.389 471.389 341.63 471.389 340.694C471.389 339.759 470.63 339 469.694 339C468.759 339 468 339.759 468 340.694C468 341.63 468.759 342.389 469.694 342.389ZM486.639 342.389C487.575 342.389 488.333 341.63 488.333 340.694C488.333 339.759 487.575 339 486.639 339C485.703 339 484.944 339.759 484.944 340.694C484.944 341.63 485.703 342.389 486.639 342.389ZM505.278 340.694C505.278 341.63 504.519 342.389 503.583 342.389C502.648 342.389 501.889 341.63 501.889 340.694C501.889 339.759 502.648 339 503.583 339C504.519 339 505.278 339.759 505.278 340.694ZM520.528 342.389C521.464 342.389 522.222 341.63 522.222 340.694C522.222 339.759 521.464 339 520.528 339C519.592 339 518.833 339.759 518.833 340.694C518.833 341.63 519.592 342.389 520.528 342.389ZM539.167 340.694C539.167 341.63 538.408 342.389 537.472 342.389C536.536 342.389 535.778 341.63 535.778 340.694C535.778 339.759 536.536 339 537.472 339C538.408 339 539.167 339.759 539.167 340.694ZM554.417 342.389C555.352 342.389 556.111 341.63 556.111 340.694C556.111 339.759 555.352 339 554.417 339C553.481 339 552.722 339.759 552.722 340.694C552.722 341.63 553.481 342.389 554.417 342.389ZM573.056 340.694C573.056 341.63 572.297 342.389 571.361 342.389C570.425 342.389 569.667 341.63 569.667 340.694C569.667 339.759 570.425 339 571.361 339C572.297 339 573.056 339.759 573.056 340.694ZM588.306 342.389C589.241 342.389 590 341.63 590 340.694C590 339.759 589.241 339 588.306 339C587.37 339 586.611 339.759 586.611 340.694C586.611 341.63 587.37 342.389 588.306 342.389ZM471.389 357.639C471.389 358.575 470.63 359.333 469.694 359.333C468.759 359.333 468 358.575 468 357.639C468 356.703 468.759 355.944 469.694 355.944C470.63 355.944 471.389 356.703 471.389 357.639ZM486.639 359.333C487.575 359.333 488.333 358.575 488.333 357.639C488.333 356.703 487.575 355.944 486.639 355.944C485.703 355.944 484.944 356.703 484.944 357.639C484.944 358.575 485.703 359.333 486.639 359.333ZM505.278 357.639C505.278 358.575 504.519 359.333 503.583 359.333C502.648 359.333 501.889 358.575 501.889 357.639C501.889 356.703 502.648 355.944 503.583 355.944C504.519 355.944 505.278 356.703 505.278 357.639ZM520.528 359.333C521.464 359.333 522.222 358.575 522.222 357.639C522.222 356.703 521.464 355.944 520.528 355.944C519.592 355.944 518.833 356.703 518.833 357.639C518.833 358.575 519.592 359.333 520.528 359.333ZM539.167 357.639C539.167 358.575 538.408 359.333 537.472 359.333C536.536 359.333 535.778 358.575 535.778 357.639C535.778 356.703 536.536 355.944 537.472 355.944C538.408 355.944 539.167 356.703 539.167 357.639ZM554.417 359.333C555.352 359.333 556.111 358.575 556.111 357.639C556.111 356.703 555.352 355.944 554.417 355.944C553.481 355.944 552.722 356.703 552.722 357.639C552.722 358.575 553.481 359.333 554.417 359.333ZM573.056 357.639C573.056 358.575 572.297 359.333 571.361 359.333C570.425 359.333 569.667 358.575 569.667 357.639C569.667 356.703 570.425 355.944 571.361 355.944C572.297 355.944 573.056 356.703 573.056 357.639ZM588.306 359.333C589.241 359.333 590 358.575 590 357.639C590 356.703 589.241 355.944 588.306 355.944C587.37 355.944 586.611 356.703 586.611 357.639C586.611 358.575 587.37 359.333 588.306 359.333ZM471.389 374.583C471.389 375.519 470.63 376.278 469.694 376.278C468.759 376.278 468 375.519 468 374.583C468 373.648 468.759 372.889 469.694 372.889C470.63 372.889 471.389 373.648 471.389 374.583ZM486.639 376.278C487.575 376.278 488.333 375.519 488.333 374.583C488.333 373.648 487.575 372.889 486.639 372.889C485.703 372.889 484.944 373.648 484.944 374.583C484.944 375.519 485.703 376.278 486.639 376.278ZM505.278 374.583C505.278 375.519 504.519 376.278 503.583 376.278C502.648 376.278 501.889 375.519 501.889 374.583C501.889 373.648 502.648 372.889 503.583 372.889C504.519 372.889 505.278 373.648 505.278 374.583ZM520.528 376.278C521.464 376.278 522.222 375.519 522.222 374.583C522.222 373.648 521.464 372.889 520.528 372.889C519.592 372.889 518.833 373.648 518.833 374.583C518.833 375.519 519.592 376.278 520.528 376.278ZM539.167 374.583C539.167 375.519 538.408 376.278 537.472 376.278C536.536 376.278 535.778 375.519 535.778 374.583C535.778 373.648 536.536 372.889 537.472 372.889C538.408 372.889 539.167 373.648 539.167 374.583ZM554.417 376.278C555.352 376.278 556.111 375.519 556.111 374.583C556.111 373.648 555.352 372.889 554.417 372.889C553.481 372.889 552.722 373.648 552.722 374.583C552.722 375.519 553.481 376.278 554.417 376.278ZM573.056 374.583C573.056 375.519 572.297 376.278 571.361 376.278C570.425 376.278 569.667 375.519 569.667 374.583C569.667 373.648 570.425 372.889 571.361 372.889C572.297 372.889 573.056 373.648 573.056 374.583ZM588.306 376.278C589.241 376.278 590 375.519 590 374.583C590 373.648 589.241 372.889 588.306 372.889C587.37 372.889 586.611 373.648 586.611 374.583C586.611 375.519 587.37 376.278 588.306 376.278ZM471.389 391.528C471.389 392.464 470.63 393.222 469.694 393.222C468.759 393.222 468 392.464 468 391.528C468 390.592 468.759 389.833 469.694 389.833C470.63 389.833 471.389 390.592 471.389 391.528ZM486.639 393.222C487.575 393.222 488.333 392.464 488.333 391.528C488.333 390.592 487.575 389.833 486.639 389.833C485.703 389.833 484.944 390.592 484.944 391.528C484.944 392.464 485.703 393.222 486.639 393.222ZM505.278 391.528C505.278 392.464 504.519 393.222 503.583 393.222C502.648 393.222 501.889 392.464 501.889 391.528C501.889 390.592 502.648 389.833 503.583 389.833C504.519 389.833 505.278 390.592 505.278 391.528ZM520.528 393.222C521.464 393.222 522.222 392.464 522.222 391.528C522.222 390.592 521.464 389.833 520.528 389.833C519.592 389.833 518.833 390.592 518.833 391.528C518.833 392.464 519.592 393.222 520.528 393.222ZM539.167 391.528C539.167 392.464 538.408 393.222 537.472 393.222C536.536 393.222 535.778 392.464 535.778 391.528C535.778 390.592 536.536 389.833 537.472 389.833C538.408 389.833 539.167 390.592 539.167 391.528ZM554.417 393.222C555.352 393.222 556.111 392.464 556.111 391.528C556.111 390.592 555.352 389.833 554.417 389.833C553.481 389.833 552.722 390.592 552.722 391.528C552.722 392.464 553.481 393.222 554.417 393.222ZM573.056 391.528C573.056 392.464 572.297 393.222 571.361 393.222C570.425 393.222 569.667 392.464 569.667 391.528C569.667 390.592 570.425 389.833 571.361 389.833C572.297 389.833 573.056 390.592 573.056 391.528ZM588.306 393.222C589.241 393.222 590 392.464 590 391.528C590 390.592 589.241 389.833 588.306 389.833C587.37 389.833 586.611 390.592 586.611 391.528C586.611 392.464 587.37 393.222 588.306 393.222ZM471.389 408.472C471.389 409.408 470.63 410.167 469.694 410.167C468.759 410.167 468 409.408 468 408.472C468 407.536 468.759 406.778 469.694 406.778C470.63 406.778 471.389 407.536 471.389 408.472ZM486.639 410.167C487.575 410.167 488.333 409.408 488.333 408.472C488.333 407.536 487.575 406.778 486.639 406.778C485.703 406.778 484.944 407.536 484.944 408.472C484.944 409.408 485.703 410.167 486.639 410.167ZM505.278 408.472C505.278 409.408 504.519 410.167 503.583 410.167C502.648 410.167 501.889 409.408 501.889 408.472C501.889 407.536 502.648 406.778 503.583 406.778C504.519 406.778 505.278 407.536 505.278 408.472ZM520.528 410.167C521.464 410.167 522.222 409.408 522.222 408.472C522.222 407.536 521.464 406.778 520.528 406.778C519.592 406.778 518.833 407.536 518.833 408.472C518.833 409.408 519.592 410.167 520.528 410.167ZM539.167 408.472C539.167 409.408 538.408 410.167 537.472 410.167C536.536 410.167 535.778 409.408 535.778 408.472C535.778 407.536 536.536 406.778 537.472 406.778C538.408 406.778 539.167 407.536 539.167 408.472ZM554.417 410.167C555.352 410.167 556.111 409.408 556.111 408.472C556.111 407.536 555.352 406.778 554.417 406.778C553.481 406.778 552.722 407.536 552.722 408.472C552.722 409.408 553.481 410.167 554.417 410.167ZM573.056 408.472C573.056 409.408 572.297 410.167 571.361 410.167C570.425 410.167 569.667 409.408 569.667 408.472C569.667 407.536 570.425 406.778 571.361 406.778C572.297 406.778 573.056 407.536 573.056 408.472ZM588.306 410.167C589.241 410.167 590 409.408 590 408.472C590 407.536 589.241 406.778 588.306 406.778C587.37 406.778 586.611 407.536 586.611 408.472C586.611 409.408 587.37 410.167 588.306 410.167ZM471.389 425.417C471.389 426.352 470.63 427.111 469.694 427.111C468.759 427.111 468 426.352 468 425.417C468 424.481 468.759 423.722 469.694 423.722C470.63 423.722 471.389 424.481 471.389 425.417ZM486.639 427.111C487.575 427.111 488.333 426.352 488.333 425.417C488.333 424.481 487.575 423.722 486.639 423.722C485.703 423.722 484.944 424.481 484.944 425.417C484.944 426.352 485.703 427.111 486.639 427.111ZM505.278 425.417C505.278 426.352 504.519 427.111 503.583 427.111C502.648 427.111 501.889 426.352 501.889 425.417C501.889 424.481 502.648 423.722 503.583 423.722C504.519 423.722 505.278 424.481 505.278 425.417ZM520.528 427.111C521.464 427.111 522.222 426.352 522.222 425.417C522.222 424.481 521.464 423.722 520.528 423.722C519.592 423.722 518.833 424.481 518.833 425.417C518.833 426.352 519.592 427.111 520.528 427.111ZM539.167 425.417C539.167 426.352 538.408 427.111 537.472 427.111C536.536 427.111 535.778 426.352 535.778 425.417C535.778 424.481 536.536 423.722 537.472 423.722C538.408 423.722 539.167 424.481 539.167 425.417ZM554.417 427.111C555.352 427.111 556.111 426.352 556.111 425.417C556.111 424.481 555.352 423.722 554.417 423.722C553.481 423.722 552.722 424.481 552.722 425.417C552.722 426.352 553.481 427.111 554.417 427.111ZM573.056 425.417C573.056 426.352 572.297 427.111 571.361 427.111C570.425 427.111 569.667 426.352 569.667 425.417C569.667 424.481 570.425 423.722 571.361 423.722C572.297 423.722 573.056 424.481 573.056 425.417ZM588.306 427.111C589.241 427.111 590 426.352 590 425.417C590 424.481 589.241 423.722 588.306 423.722C587.37 423.722 586.611 424.481 586.611 425.417C586.611 426.352 587.37 427.111 588.306 427.111ZM471.389 442.361C471.389 443.297 470.63 444.056 469.694 444.056C468.759 444.056 468 443.297 468 442.361C468 441.425 468.759 440.667 469.694 440.667C470.63 440.667 471.389 441.425 471.389 442.361ZM486.639 444.056C487.575 444.056 488.333 443.297 488.333 442.361C488.333 441.425 487.575 440.667 486.639 440.667C485.703 440.667 484.944 441.425 484.944 442.361C484.944 443.297 485.703 444.056 486.639 444.056ZM505.278 442.361C505.278 443.297 504.519 444.056 503.583 444.056C502.648 444.056 501.889 443.297 501.889 442.361C501.889 441.425 502.648 440.667 503.583 440.667C504.519 440.667 505.278 441.425 505.278 442.361ZM520.528 444.056C521.464 444.056 522.222 443.297 522.222 442.361C522.222 441.425 521.464 440.667 520.528 440.667C519.592 440.667 518.833 441.425 518.833 442.361C518.833 443.297 519.592 444.056 520.528 444.056ZM539.167 442.361C539.167 443.297 538.408 444.056 537.472 444.056C536.536 444.056 535.778 443.297 535.778 442.361C535.778 441.425 536.536 440.667 537.472 440.667C538.408 440.667 539.167 441.425 539.167 442.361ZM554.417 444.056C555.352 444.056 556.111 443.297 556.111 442.361C556.111 441.425 555.352 440.667 554.417 440.667C553.481 440.667 552.722 441.425 552.722 442.361C552.722 443.297 553.481 444.056 554.417 444.056ZM573.056 442.361C573.056 443.297 572.297 444.056 571.361 444.056C570.425 444.056 569.667 443.297 569.667 442.361C569.667 441.425 570.425 440.667 571.361 440.667C572.297 440.667 573.056 441.425 573.056 442.361ZM588.306 444.056C589.241 444.056 590 443.297 590 442.361C590 441.425 589.241 440.667 588.306 440.667C587.37 440.667 586.611 441.425 586.611 442.361C586.611 443.297 587.37 444.056 588.306 444.056ZM471.389 459.306C471.389 460.241 470.63 461 469.694 461C468.759 461 468 460.241 468 459.306C468 458.37 468.759 457.611 469.694 457.611C470.63 457.611 471.389 458.37 471.389 459.306ZM486.639 461C487.575 461 488.333 460.241 488.333 459.306C488.333 458.37 487.575 457.611 486.639 457.611C485.703 457.611 484.944 458.37 484.944 459.306C484.944 460.241 485.703 461 486.639 461ZM505.278 459.306C505.278 460.241 504.519 461 503.583 461C502.648 461 501.889 460.241 501.889 459.306C501.889 458.37 502.648 457.611 503.583 457.611C504.519 457.611 505.278 458.37 505.278 459.306ZM520.528 461C521.464 461 522.222 460.241 522.222 459.306C522.222 458.37 521.464 457.611 520.528 457.611C519.592 457.611 518.833 458.37 518.833 459.306C518.833 460.241 519.592 461 520.528 461ZM539.167 459.306C539.167 460.241 538.408 461 537.472 461C536.536 461 535.778 460.241 535.778 459.306C535.778 458.37 536.536 457.611 537.472 457.611C538.408 457.611 539.167 458.37 539.167 459.306ZM554.417 461C555.352 461 556.111 460.241 556.111 459.306C556.111 458.37 555.352 457.611 554.417 457.611C553.481 457.611 552.722 458.37 552.722 459.306C552.722 460.241 553.481 461 554.417 461ZM573.056 459.306C573.056 460.241 572.297 461 571.361 461C570.425 461 569.667 460.241 569.667 459.306C569.667 458.37 570.425 457.611 571.361 457.611C572.297 457.611 573.056 458.37 573.056 459.306ZM588.306 461C589.241 461 590 460.241 590 459.306C590 458.37 589.241 457.611 588.306 457.611C587.37 457.611 586.611 458.37 586.611 459.306C586.611 460.241 587.37 461 588.306 461Z" fill="white"/>
</mask>
<g mask="url(#mask0_1_2414)">
<rect x="468" y="339" width="122" height="122" fill="#7854F7"/>
</g>
</svg>
